<?xml version="1.0" encoding="UTF-8" standalone="no"?>
<!DOCTYPE svg PUBLIC "-//W3C//DTD SVG 1.1//EN"
 "http://www.w3.org/Graphics/SVG/1.1/DTD/svg11.dtd">
<!-- Generated by graphviz version 2.42.4 (0)
 -->
<!-- Title: Overview Pages: 1 -->
<svg width="606pt" height="962pt"
 viewBox="0.00 0.00 606.00 962.00" xmlns="http://www.w3.org/2000/svg" xmlns:xlink="http://www.w3.org/1999/xlink">
<g id="graph0" class="graph" transform="scale(1 1) rotate(0) translate(4 958)">
<title>Overview</title>
<polygon fill="white" stroke="transparent" points="-4,4 -4,-958 602,-958 602,4 -4,4"/>
<!-- movement -->
<g id="node1" class="node">
<title>movement</title>
<polygon fill="#111827" stroke="black" points="251,-495 0,-495 0,-459 251,-459 251,-495"/>
<text text-anchor="middle" x="125.5" y="-473.3" font-family="Arial" font-size="14.00" fill="white">Human movement practices &amp; cultures</text>
</g>
<!-- dance -->
<g id="node2" class="node">
<title>dance</title>
<polygon fill="#1f4e79" stroke="black" points="538.5,-954 346.5,-954 346.5,-918 538.5,-918 538.5,-954"/>
<text text-anchor="middle" x="442.5" y="-932.3" font-family="Arial" font-size="14.00" fill="white">Dance &amp; rhythmic movement</text>
</g>
<!-- movement&#45;&gt;dance -->
<g id="edge1" class="edge">
<title>movement&#45;&gt;dance</title>
<path fill="none" stroke="black" d="M32,-495.28C32,-580.65 32,-936 32,-936 32,-936 336.26,-936 336.26,-936"/>
<polygon fill="black" stroke="black" points="336.26,-939.5 346.26,-936 336.26,-932.5 336.26,-939.5"/>
</g>
<!-- combat -->
<g id="node3" class="node">
<title>combat</title>
<polygon fill="#1f4e79" stroke="black" points="556.5,-900 328.5,-900 328.5,-864 556.5,-864 556.5,-900"/>
<text text-anchor="middle" x="442.5" y="-878.3" font-family="Arial" font-size="14.00" fill="white">Combat, martial &amp; weapon cultures</text>
</g>
<!-- movement&#45;&gt;combat -->
<g id="edge2" class="edge">
<title>movement&#45;&gt;combat</title>
<path fill="none" stroke="black" d="M63,-495.19C63,-573.99 63,-882 63,-882 63,-882 318.38,-882 318.38,-882"/>
<polygon fill="black" stroke="black" points="318.38,-885.5 328.38,-882 318.38,-878.5 318.38,-885.5"/>
</g>
<!-- sport -->
<g id="node4" class="node">
<title>sport</title>
<polygon fill="#1f4e79" stroke="black" points="522,-846 363,-846 363,-810 522,-810 522,-846"/>
<text text-anchor="middle" x="442.5" y="-824.3" font-family="Arial" font-size="14.00" fill="white">Games, sport &amp; contest</text>
</g>
<!-- movement&#45;&gt;sport -->
<g id="edge3" class="edge">
<title>movement&#45;&gt;sport</title>
<path fill="none" stroke="black" d="M95,-495.38C95,-567.6 95,-828 95,-828 95,-828 352.78,-828 352.78,-828"/>
<polygon fill="black" stroke="black" points="352.78,-831.5 362.78,-828 352.78,-824.5 352.78,-831.5"/>
</g>
<!-- fitness -->
<g id="node5" class="node">
<title>fitness</title>
<polygon fill="#1f4e79" stroke="black" points="571,-792 314,-792 314,-756 571,-756 571,-792"/>
<text text-anchor="middle" x="442.5" y="-770.3" font-family="Arial" font-size="14.00" fill="white">Physical culture, conditioning &amp; exercise</text>
</g>
<!-- movement&#45;&gt;fitness -->
<g id="edge4" class="edge">
<title>movement&#45;&gt;fitness</title>
<path fill="none" stroke="black" d="M126,-495.13C126,-559.61 126,-774 126,-774 126,-774 303.77,-774 303.77,-774"/>
<polygon fill="black" stroke="black" points="303.77,-777.5 313.77,-774 303.77,-770.5 303.77,-777.5"/>
</g>
<!-- somatics -->
<g id="node6" class="node">
<title>somatics</title>
<polygon fill="#1f4e79" stroke="black" points="559.5,-738 325.5,-738 325.5,-702 559.5,-702 559.5,-738"/>
<text text-anchor="middle" x="442.5" y="-716.3" font-family="Arial" font-size="14.00" fill="white">Somatics, mind–body &amp; internal arts</text>
</g>
<!-- movement&#45;&gt;somatics -->
<g id="edge5" class="edge">
<title>movement&#45;&gt;somatics</title>
<path fill="none" stroke="black" d="M157,-495.26C157,-551.78 157,-720 157,-720 157,-720 315.14,-720 315.14,-720"/>
<polygon fill="black" stroke="black" points="315.14,-723.5 325.14,-720 315.14,-716.5 315.14,-723.5"/>
</g>
<!-- ritual -->
<g id="node7" class="node">
<title>ritual</title>
<polygon fill="#1f4e79" stroke="black" points="578.5,-684 306.5,-684 306.5,-648 578.5,-648 578.5,-684"/>
<text text-anchor="middle" x="442.5" y="-662.3" font-family="Arial" font-size="14.00" fill="white">Ritual, devotional &amp; ceremonial movement</text>
</g>
<!-- movement&#45;&gt;ritual -->
<g id="edge6" class="edge">
<title>movement&#45;&gt;ritual</title>
<path fill="none" stroke="black" d="M189,-495.12C189,-542.43 189,-666 189,-666 189,-666 296.47,-666 296.47,-666"/>
<polygon fill="black" stroke="black" points="296.47,-669.5 306.47,-666 296.47,-662.5 296.47,-669.5"/>
</g>
<!-- performance -->
<g id="node8" class="node">
<title>performance</title>
<polygon fill="#1f4e79" stroke="black" points="575.5,-630 309.5,-630 309.5,-594 575.5,-594 575.5,-630"/>
<text text-anchor="middle" x="442.5" y="-608.3" font-family="Arial" font-size="14.00" fill="white">Theatre, mime &amp; movement performance</text>
</g>
<!-- movement&#45;&gt;performance -->
<g id="edge7" class="edge">
<title>movement&#45;&gt;performance</title>
<path fill="none" stroke="black" d="M220,-495.21C220,-532.06 220,-612 220,-612 220,-612 299.22,-612 299.22,-612"/>
<polygon fill="black" stroke="black" points="299.22,-615.5 309.22,-612 299.22,-608.5 299.22,-615.5"/>
</g>
<!-- acrobatics -->
<g id="node9" class="node">
<title>acrobatics</title>
<polygon fill="#1f4e79" stroke="black" points="570.5,-576 314.5,-576 314.5,-540 570.5,-540 570.5,-576"/>
<text text-anchor="middle" x="442.5" y="-554.3" font-family="Arial" font-size="14.00" fill="white">Acrobatics, circus &amp; object manipulation</text>
</g>
<!-- movement&#45;&gt;acrobatics -->
<g id="edge8" class="edge">
<title>movement&#45;&gt;acrobatics</title>
<path fill="none" stroke="black" d="M251.28,-492C291.12,-492 325,-492 325,-492 325,-492 325,-529.97 325,-529.97"/>
<polygon fill="black" stroke="black" points="321.5,-529.97 325,-539.97 328.5,-529.97 321.5,-529.97"/>
</g>
<!-- locomotion -->
<g id="node10" class="node">
<title>locomotion</title>
<polygon fill="#1f4e79" stroke="black" points="550,-522 335,-522 335,-486 550,-486 550,-522"/>
<text text-anchor="middle" x="442.5" y="-500.3" font-family="Arial" font-size="14.00" fill="white">Locomotion, travel &amp; terrain skills</text>
</g>
<!-- movement&#45;&gt;locomotion -->
<g id="edge9" class="edge">
<title>movement&#45;&gt;locomotion</title>
<path fill="none" stroke="black" d="M251.24,-489C251.24,-489 324.82,-489 324.82,-489"/>
<polygon fill="black" stroke="black" points="324.82,-492.5 334.82,-489 324.82,-485.5 324.82,-492.5"/>
</g>
<!-- outdoor -->
<g id="node11" class="node">
<title>outdoor</title>
<polygon fill="#1f4e79" stroke="black" points="574,-468 311,-468 311,-432 574,-432 574,-468"/>
<text text-anchor="middle" x="442.5" y="-446.3" font-family="Arial" font-size="14.00" fill="white">Outdoor, adventure &amp; survival movement</text>
</g>
<!-- movement&#45;&gt;outdoor -->
<g id="edge10" class="edge">
<title>movement&#45;&gt;outdoor</title>
<path fill="none" stroke="black" d="M251.24,-465C251.24,-465 300.93,-465 300.93,-465"/>
<polygon fill="black" stroke="black" points="300.93,-468.5 310.93,-465 300.93,-461.5 300.93,-468.5"/>
</g>
<!-- aquatic -->
<g id="node12" class="node">
<title>aquatic</title>
<polygon fill="#1f4e79" stroke="black" points="549.5,-414 335.5,-414 335.5,-378 549.5,-378 549.5,-414"/>
<text text-anchor="middle" x="442.5" y="-392.3" font-family="Arial" font-size="14.00" fill="white">Aquatic &amp; underwater movement</text>
</g>
<!-- movement&#45;&gt;aquatic -->
<g id="edge11" class="edge">
<title>movement&#45;&gt;aquatic</title>
<path fill="none" stroke="black" d="M220,-458.62C220,-434.72 220,-396 220,-396 220,-396 325.49,-396 325.49,-396"/>
<polygon fill="black" stroke="black" points="325.49,-399.5 335.49,-396 325.49,-392.5 325.49,-399.5"/>
</g>
<!-- occupational -->
<g id="node13" class="node">
<title>occupational</title>
<polygon fill="#1f4e79" stroke="black" points="561.5,-360 323.5,-360 323.5,-324 561.5,-324 561.5,-360"/>
<text text-anchor="middle" x="442.5" y="-338.3" font-family="Arial" font-size="14.00" fill="white">Work, craft &amp; subsistence movement</text>
</g>
<!-- movement&#45;&gt;occupational -->
<g id="edge12" class="edge">
<title>movement&#45;&gt;occupational</title>
<path fill="none" stroke="black" d="M189,-458.79C189,-421.94 189,-342 189,-342 189,-342 313.17,-342 313.17,-342"/>
<polygon fill="black" stroke="black" points="313.17,-345.5 323.17,-342 313.17,-338.5 313.17,-345.5"/>
</g>
<!-- healing -->
<g id="node14" class="node">
<title>healing</title>
<polygon fill="#1f4e79" stroke="black" points="596,-306 289,-306 289,-270 596,-270 596,-306"/>
<text text-anchor="middle" x="442.5" y="-284.3" font-family="Arial" font-size="14.00" fill="white">Therapeutic, rehabilitative &amp; adaptive movement</text>
</g>
<!-- movement&#45;&gt;healing -->
<g id="edge13" class="edge">
<title>movement&#45;&gt;healing</title>
<path fill="none" stroke="black" d="M251.32,-462C277.85,-462 298,-462 298,-462 298,-462 298,-316.29 298,-316.29"/>
<polygon fill="black" stroke="black" points="301.5,-316.29 298,-306.29 294.5,-316.29 301.5,-316.29"/>
</g>
<!-- play -->
<g id="node15" class="node">
<title>play</title>
<polygon fill="#1f4e79" stroke="black" points="583,-252 302,-252 302,-216 583,-216 583,-252"/>
<text text-anchor="middle" x="442.5" y="-230.3" font-family="Arial" font-size="14.00" fill="white">Play, improvisation &amp; movement exploration</text>
</g>
<!-- movement&#45;&gt;play -->
<g id="edge14" class="edge">
<title>movement&#45;&gt;play</title>
<path fill="none" stroke="black" d="M157,-458.74C157,-402.22 157,-234 157,-234 157,-234 291.84,-234 291.84,-234"/>
<polygon fill="black" stroke="black" points="291.84,-237.5 301.84,-234 291.84,-230.5 291.84,-237.5"/>
</g>
<!-- animal -->
<g id="node16" class="node">
<title>animal</title>
<polygon fill="#1f4e79" stroke="black" points="537,-198 348,-198 348,-162 537,-162 537,-198"/>
<text text-anchor="middle" x="442.5" y="-176.3" font-family="Arial" font-size="14.00" fill="white">Animal&#45;partnered movement</text>
</g>
<!-- movement&#45;&gt;animal -->
<g id="edge15" class="edge">
<title>movement&#45;&gt;animal</title>
<path fill="none" stroke="black" d="M126,-458.87C126,-394.39 126,-180 126,-180 126,-180 337.97,-180 337.97,-180"/>
<polygon fill="black" stroke="black" points="337.97,-183.5 347.97,-180 337.97,-176.5 337.97,-183.5"/>
</g>
<!-- military -->
<g id="node17" class="node">
<title>military</title>
<polygon fill="#1f4e79" stroke="black" points="573.5,-144 311.5,-144 311.5,-108 573.5,-108 573.5,-144"/>
<text text-anchor="middle" x="442.5" y="-122.3" font-family="Arial" font-size="14.00" fill="white">Military drill, tactical &amp; service movement</text>
</g>
<!-- movement&#45;&gt;military -->
<g id="edge16" class="edge">
<title>movement&#45;&gt;military</title>
<path fill="none" stroke="black" d="M95,-458.62C95,-386.4 95,-126 95,-126 95,-126 301.13,-126 301.13,-126"/>
<polygon fill="black" stroke="black" points="301.13,-129.5 311.13,-126 301.13,-122.5 301.13,-129.5"/>
</g>
<!-- digital -->
<g id="node18" class="node">
<title>digital</title>
<polygon fill="#1f4e79" stroke="black" points="598,-90 287,-90 287,-54 598,-54 598,-90"/>
<text text-anchor="middle" x="442.5" y="-68.3" font-family="Arial" font-size="14.00" fill="white">Digital, mediated &amp; emerging movement cultures</text>
</g>
<!-- movement&#45;&gt;digital -->
<g id="edge17" class="edge">
<title>movement&#45;&gt;digital</title>
<path fill="none" stroke="black" d="M63,-458.81C63,-380.01 63,-72 63,-72 63,-72 276.77,-72 276.77,-72"/>
<polygon fill="black" stroke="black" points="276.77,-75.5 286.77,-72 276.77,-68.5 276.77,-75.5"/>
</g>
<!-- education -->
<g id="node19" class="node">
<title>education</title>
<polygon fill="#1f4e79" stroke="black" points="552,-36 333,-36 333,0 552,0 552,-36"/>
<text text-anchor="middle" x="442.5" y="-14.3" font-family="Arial" font-size="14.00" fill="white">Movement education &amp; pedagogy</text>
</g>
<!-- movement&#45;&gt;education -->
<g id="edge18" class="edge">
<title>movement&#45;&gt;education</title>
<path fill="none" stroke="black" d="M32,-458.72C32,-373.35 32,-18 32,-18 32,-18 322.76,-18 322.76,-18"/>
<polygon fill="black" stroke="black" points="322.76,-21.5 332.76,-18 322.76,-14.5 322.76,-21.5"/>
</g>
</g>
</svg>
